<svg width="20" height="30" viewBox="0 0 33 38" fill="none" xmlns="http://www.w3.org/2000/svg">
<path d="M30.5013 0L33 11.02L30.9321 11.6787C29.9628 9.47467 28.9719 7.27067 27.8303 6.156C26.6886 5.06667 25.3531 5.06667 24.0392 5.06667H18.654V31.6667C18.654 32.9333 18.654 34.2 19.3649 34.8333C20.0973 35.4667 21.5189 35.4667 22.9621 35.4667V38H10.0379V35.4667C11.4811 35.4667 12.9027 35.4667 13.6351 34.8333C14.346 34.2 14.346 32.9333 14.346 31.6667V5.06667H8.96084C7.64687 5.06667 6.31136 5.06667 5.16971 6.156C4.02807 7.27067 3.03721 9.47467 2.06789 11.6787L0 11.02L2.49869 0H30.5013Z" fill="black" fill-opacity="0.28"/>
</svg>
